TC12FP-MediumOblique.ufo
<glyph name="exclam" format="1">
  <advance width="465"/>
  <unicode hex="0021"/>
  <outline>
    <contour>
      <point x="409" y="1472" type="line"/>
      <point x="201" y="496" type="line"/>
      <point x="473" y="496" type="line"/>
      <point x="681" y="1472" type="line"/>
    </contour>
    <contour>
      <point x="369" y="0" type="line"/>
      <point x="429" y="288" type="line"/>
      <point x="157" y="288" type="line"/>
      <point x="97" y="0" type="line"/>
    </contour>
  </outline>
</glyph>
<glyph name="quotedbl" format="1">
  <advance width="848"/>
  <unicode hex="0022"/>
  <outline>
    <contour>
      <point x="681" y="1472" type="line"/>
      <point x="409" y="1472" type="line"/>
      <point x="393" y="1024" type="line"/>
      <point x="505" y="1024" type="line"/>
    </contour>
    <contour>
      <point x="1065" y="1472" type="line"/>
      <point x="793" y="1472" type="line"/>
      <point x="777" y="1024" type="line"/>
      <point x="889" y="1024" type="line"/>
    </contour>
  </outline>
</glyph>
<glyph name="numbersign" format="1">
  <advance width="1572"/>
  <unicode hex="0023"/>
  <outline>
    <contour>
      <point x="1029" y="608" type="line"/>
      <point x="773" y="608" type="line"/>
      <point x="872" y="864" type="line"/>
      <point x="1128" y="864" type="line"/>
    </contour>
    <contour>
      <point x="794" y="0" type="line"/>
      <point x="1050" y="0" type="line"/>
      <point x="1192" y="368" type="line"/>
      <point x="1454" y="368" type="line"/>
      <point x="1506" y="608" type="line"/>
      <point x="1285" y="608" type="line"/>
      <point x="1384" y="864" type="line"/>
      <point x="1658" y="864" type="line"/>
      <point x="1710" y="1104" type="line"/>
      <point x="1476" y="1104" type="line"/>
      <point x="1618" y="1472" type="line"/>
      <point x="1362" y="1472" type="line"/>
      <point x="1220" y="1104" type="line"/>
      <point x="964" y="1104" type="line"/>
      <point x="1106" y="1472" type="line"/>
      <point x="850" y="1472" type="line"/>
      <point x="708" y="1104" type="line"/>
      <point x="430" y="1104" type="line"/>
      <point x="378" y="864" type="line"/>
      <point x="616" y="864" type="line"/>
      <point x="517" y="608" type="line"/>
      <point x="226" y="608" type="line"/>
      <point x="174" y="368" type="line"/>
      <point x="424" y="368" type="line"/>
      <point x="282" y="0" type="line"/>
      <point x="538" y="0" type="line"/>
      <point x="680" y="368" type="line"/>
      <point x="936" y="368" type="line"/>
    </contour>
  </outline>
</glyph>
<glyph name="dollar" format="1">
  <advance width="929"/>
  <unicode hex="0024"/>
  <outline>
    <contour>
      <point x="502" y="-192" type="line"/>
      <point x="540" y="-16" type="line"/>
      <point x="715" y="29"/>
      <point x="869" y="165"/>
      <point x="914" y="384" type="curve" smooth="yes"/>
      <point x="950" y="544"/>
      <point x="934" y="624"/>
      <point x="858" y="720" type="curve" smooth="yes"/>
      <point x="706" y="912" type="line" smooth="yes"/>
      <point x="646" y="992"/>
      <point x="590" y="1040"/>
      <point x="606" y="1120" type="curve" smooth="yes"/>
      <point x="630" y="1216"/>
      <point x="718" y="1264"/>
      <point x="814" y="1264" type="curve" smooth="yes"/>
      <point x="894" y="1264"/>
      <point x="966" y="1232"/>
      <point x="1026" y="1200" type="curve"/>
      <point x="1074" y="1440" type="line"/>
      <point x="1026" y="1484"/>
      <point x="944" y="1501"/>
      <point x="856" y="1504" type="curve"/>
      <point x="890" y="1664" type="line"/>
      <point x="738" y="1664" type="line"/>
      <point x="702" y="1491" type="line"/>
      <point x="495" y="1450"/>
      <point x="374" y="1307"/>
      <point x="334" y="1120" type="curve" smooth="yes"/>
      <point x="302" y="960"/>
      <point x="334" y="880"/>
      <point x="422" y="768" type="curve" smooth="yes"/>
      <point x="570" y="576" type="line" smooth="yes"/>
      <point x="622" y="512"/>
      <point x="646" y="464"/>
      <point x="626" y="384" type="curve" smooth="yes"/>
      <point x="606" y="288"/>
      <point x="526" y="208"/>
      <point x="430" y="208" type="curve" smooth="yes"/>
      <point x="350" y="208"/>
      <point x="274" y="224"/>
      <point x="186" y="272" type="curve"/>
      <point x="138" y="32" type="line"/>
      <point x="199" y="-11"/>
      <point x="292" y="-28"/>
      <point x="380" y="-31" type="curve"/>
      <point x="346" y="-192" type="line"/>
    </contour>
  </outline>
</glyph>
<glyph name="percent" format="1">
  <advance width="1728"/>
  <unicode hex="0025"/>
  <outline>
    <contour>
      <point x="1448" y="1472" type="line"/>
      <point x="400" y="0" type="line"/>
      <point x="656" y="0" type="line"/>
      <point x="1704" y="1472" type="line"/>
    </contour>
    <contour>
      <point x="580" y="704" type="curve" smooth="yes"/>
      <point x="772" y="704"/>
      <point x="952" y="864"/>
      <point x="992" y="1056" type="curve" smooth="yes"/>
      <point x="1032" y="1248"/>
      <point x="924" y="1408"/>
      <point x="732" y="1408" type="curve" smooth="yes"/>
      <point x="540" y="1408"/>
      <point x="360" y="1248"/>
      <point x="320" y="1056" type="curve" smooth="yes"/>
      <point x="280" y="864"/>
      <point x="388" y="704"/>
    </contour>
    <contour>
      <point x="620" y="896" type="curve" smooth="yes"/>
      <point x="524" y="896"/>
      <point x="476" y="960"/>
      <point x="496" y="1056" type="curve" smooth="yes"/>
      <point x="516" y="1152"/>
      <point x="592" y="1216"/>
      <point x="688" y="1216" type="curve" smooth="yes"/>
      <point x="784" y="1216"/>
      <point x="836" y="1152"/>
      <point x="816" y="1056" type="curve" smooth="yes"/>
      <point x="796" y="960"/>
      <point x="716" y="896"/>
    </contour>
    <contour>
      <point x="1288" y="-32" type="curve" smooth="yes"/>
      <point x="1480" y="-32"/>
      <point x="1660" y="128"/>
      <point x="1700" y="320" type="curve" smooth="yes"/>
      <point x="1740" y="512"/>
      <point x="1628" y="672"/>
      <point x="1436" y="672" type="curve" smooth="yes"/>
      <point x="1244" y="672"/>
      <point x="1068" y="512"/>
      <point x="1028" y="320" type="curve" smooth="yes"/>
      <point x="988" y="128"/>
      <point x="1096" y="-32"/>
    </contour>
    <contour>
      <point x="1328" y="160" type="curve" smooth="yes"/>
      <point x="1232" y="160"/>
      <point x="1184" y="224"/>
      <point x="1204" y="320" type="curve" smooth="yes"/>
      <point x="1224" y="416"/>
      <point x="1300" y="480"/>
      <point x="1396" y="480" type="curve" smooth="yes"/>
      <point x="1492" y="480"/>
      <point x="1544" y="416"/>
      <point x="1524" y="320" type="curve" smooth="yes"/>
      <point x="1504" y="224"/>
      <point x="1424" y="160"/>
    </contour>
  </outline>
</glyph>
<glyph name="ampersand" format="1">
  <advance width="1391"/>
  <unicode hex="0026"/>
  <outline>
    <contour>
      <point x="651" y="208" type="curve" smooth="yes"/>
      <point x="523" y="208"/>
      <point x="431" y="304"/>
      <point x="463" y="448" type="curve" smooth="yes"/>
      <point x="480" y="535"/>
      <point x="528" y="594"/>
      <point x="628" y="663" type="curve"/>
      <point x="830" y="259" type="line"/>
      <point x="776" y="228"/>
      <point x="716" y="208"/>
    </contour>
    <contour>
      <point x="895" y="1504" type="curve" smooth="yes"/>
      <point x="639" y="1504"/>
      <point x="503" y="1328"/>
      <point x="475" y="1184" type="curve" smooth="yes"/>
      <point x="455" y="1088"/>
      <point x="463" y="984"/>
      <point x="511" y="896" type="curve" smooth="yes"/>
      <point x="537" y="844" type="line"/>
      <point x="400" y="770"/>
      <point x="226" y="614"/>
      <point x="191" y="448" type="curve" smooth="yes"/>
      <point x="127" y="160"/>
      <point x="279" y="-32"/>
      <point x="599" y="-32" type="curve" smooth="yes"/>
      <point x="721" y="-32"/>
      <point x="833" y="1"/>
      <point x="932" y="54" type="curve"/>
      <point x="959" y="0" type="line"/>
      <point x="1295" y="0" type="line"/>
      <point x="1171" y="244" type="line"/>
      <point x="1282" y="367"/>
      <point x="1357" y="513"/>
      <point x="1383" y="640" type="curve"/>
      <point x="1111" y="640" type="line"/>
      <point x="1103" y="601"/>
      <point x="1081" y="546"/>
      <point x="1047" y="489" type="curve"/>
      <point x="883" y="812" type="line"/>
      <point x="1003" y="896" type="line" smooth="yes"/>
      <point x="1107" y="972"/>
      <point x="1159" y="1088"/>
      <point x="1179" y="1184" type="curve" smooth="yes"/>
      <point x="1207" y="1328"/>
      <point x="1151" y="1504"/>
    </contour>
    <contour>
      <point x="843" y="1264" type="curve" smooth="yes"/>
      <point x="875" y="1264"/>
      <point x="919" y="1248"/>
      <point x="907" y="1184" type="curve" smooth="yes"/>
      <point x="891" y="1104"/>
      <point x="839" y="1060"/>
      <point x="807" y="1024" type="curve" smooth="yes"/>
      <point x="787" y="1002" type="line"/>
      <point x="775" y="1024" type="line"/>
      <point x="759" y="1060"/>
      <point x="731" y="1104"/>
      <point x="747" y="1184" type="curve" smooth="yes"/>
      <point x="759" y="1248"/>
      <point x="811" y="1264"/>
    </contour>
  </outline>
</glyph>
<glyph name="quotesingle" format="1">
  <advance width="448"/>
  <unicode hex="0027"/>
  <outline>
    <contour>
      <point x="514" y="1056" type="line"/>
      <point x="658" y="1440" type="line"/>
      <point x="634" y="1472" type="line"/>
      <point x="442" y="1472" type="line"/>
      <point x="402" y="1440" type="line"/>
      <point x="386" y="1056" type="line"/>
      <point x="410" y="1024" type="line"/>
      <point x="474" y="1024" type="line"/>
    </contour>
  </outline>
</glyph>
<glyph name="parenleft" format="1">
  <advance width="625"/>
  <unicode hex="0028"/>
  <outline>
    <contour>
      <point x="232" y="640" type="curve" smooth="yes"/>
      <point x="172" y="352"/>
      <point x="180" y="96"/>
      <point x="264" y="-192" type="curve"/>
      <point x="488" y="-192" type="line"/>
      <point x="404" y="96"/>
      <point x="396" y="352"/>
      <point x="456" y="640" type="curve" smooth="yes"/>
      <point x="516" y="928"/>
      <point x="636" y="1184"/>
      <point x="840" y="1472" type="curve"/>
      <point x="616" y="1472" type="line"/>
      <point x="412" y="1184"/>
      <point x="292" y="928"/>
    </contour>
  </outline>
</glyph>
<glyph name="parenright" format="1">
  <advance width="625"/>
  <unicode hex="0029"/>
  <outline>
    <contour>
      <point x="633" y="1472" type="curve"/>
      <point x="409" y="1472" type="line"/>
      <point x="493" y="1184"/>
      <point x="501" y="928"/>
      <point x="441" y="640" type="curve" smooth="yes"/>
      <point x="381" y="352"/>
      <point x="261" y="96"/>
      <point x="57" y="-192" type="curve"/>
      <point x="281" y="-192" type="line"/>
      <point x="485" y="96"/>
      <point x="605" y="352"/>
      <point x="665" y="640" type="curve" smooth="yes"/>
      <point x="725" y="928"/>
      <point x="717" y="1184"/>
    </contour>
  </outline>
</glyph>
<glyph name="asterisk" format="1">
  <advance width="948"/>
  <unicode hex="002A"/>
  <outline>
    <contour>
      <point x="777" y="752" type="line"/>
      <point x="953" y="864" type="line"/>
      <point x="965" y="912" type="line"/>
      <point x="808" y="1073" type="line"/>
      <point x="1065" y="1092" type="line"/>
      <point x="1093" y="1132" type="line"/>
      <point x="1069" y="1308" type="line"/>
      <point x="1029" y="1328" type="line"/>
      <point x="795" y="1198" type="line"/>
      <point x="921" y="1472" type="line"/>
      <point x="649" y="1472" type="line"/>
      <point x="660" y="1198" type="line"/>
      <point x="477" y="1332" type="line"/>
      <point x="433" y="1312" type="line"/>
      <point x="337" y="1132" type="line"/>
      <point x="349" y="1088" type="line"/>
      <point x="594" y="1073" type="line"/>
      <point x="365" y="908" type="line"/>
      <point x="365" y="864" type="line"/>
      <point x="493" y="756" type="line"/>
      <point x="545" y="764" type="line"/>
      <point x="686" y="999" type="line"/>
      <point x="733" y="760" type="line"/>
    </contour>
  </outline>
</glyph>
<glyph name="comma" format="1">
  <advance width="465"/>
  <unicode hex="002C"/>
  <outline>
    <contour>
      <point x="209" y="0" type="line"/>
      <point x="165" y="-208" type="line"/>
      <point x="245" y="-208" type="line"/>
      <point x="369" y="0" type="line"/>
      <point x="429" y="288" type="line"/>
      <point x="157" y="288" type="line"/>
      <point x="97" y="0" type="line"/>
    </contour>
  </outline>
</glyph>
<glyph name="hyphen" format="1">
  <advance width="835"/>
  <unicode hex="002D"/>
  <outline>
    <contour>
      <point x="899" y="768" type="line"/>
      <point x="259" y="768" type="line"/>
      <point x="211" y="528" type="line"/>
      <point x="851" y="528" type="line"/>
    </contour>
  </outline>
</glyph>
<glyph name="period" format="1">
  <advance width="467"/>
  <unicode hex="002E"/>
  <outline>
    <contour>
      <point x="368" y="0" type="line"/>
      <point x="432" y="288" type="line"/>
      <point x="160" y="288" type="line"/>
      <point x="96" y="0" type="line"/>
    </contour>
  </outline>
</glyph>
<glyph name="slash" format="1">
  <advance width="895"/>
  <unicode hex="002F"/>
  <outline>
    <contour>
      <point x="888" y="1472" type="line"/>
      <point x="96" y="0" type="line"/>
      <point x="320" y="0" type="line"/>
      <point x="344" y="32"/>
      <point x="1112" y="1472"/>
      <point x="1112" y="1472" type="curve"/>
    </contour>
  </outline>
</glyph>
<glyph name="zero" format="1">
  <advance width="1056"/>
  <unicode hex="0030"/>
  <outline>
    <contour>
      <point x="520" y="-32" type="curve" smooth="yes"/>
      <point x="776" y="-32"/>
      <point x="992" y="160"/>
      <point x="1048" y="416" type="curve" smooth="yes"/>
      <point x="1184" y="1056" type="line" smooth="yes"/>
      <point x="1240" y="1312"/>
      <point x="1104" y="1504"/>
      <point x="848" y="1504" type="curve" smooth="yes"/>
      <point x="592" y="1504"/>
      <point x="376" y="1312"/>
      <point x="320" y="1056" type="curve" smooth="yes"/>
      <point x="184" y="416" type="line" smooth="yes"/>
      <point x="128" y="160"/>
      <point x="264" y="-32"/>
    </contour>
    <contour>
      <point x="576" y="224" type="curve" smooth="yes"/>
      <point x="480" y="224"/>
      <point x="428" y="288"/>
      <point x="448" y="384" type="curve" smooth="yes"/>
      <point x="600" y="1088" type="line" smooth="yes"/>
      <point x="620" y="1184"/>
      <point x="696" y="1248"/>
      <point x="792" y="1248" type="curve" smooth="yes"/>
      <point x="888" y="1248"/>
      <point x="940" y="1184"/>
      <point x="920" y="1088" type="curve" smooth="yes"/>
      <point x="768" y="384" type="line" smooth="yes"/>
      <point x="748" y="288"/>
      <point x="672" y="224"/>
    </contour>
  </outline>
</glyph>
<glyph name="one" format="1">
  <advance width="917"/>
  <unicode hex="0031"/>
  <outline>
    <contour>
      <point x="872" y="240" type="line"/>
      <point x="648" y="240" type="line"/>
      <point x="912" y="1472" type="line"/>
      <point x="480" y="1472" type="line"/>
      <point x="424" y="1232" type="line"/>
      <point x="584" y="1232" type="line"/>
      <point x="376" y="240" type="line"/>
      <point x="152" y="240" type="line"/>
      <point x="96" y="0" type="line"/>
      <point x="816" y="0" type="line"/>
    </contour>
  </outline>
</glyph>
<glyph name="two" format="1">
  <advance width="979"/>
  <unicode hex="0032"/>
  <outline>
    <contour>
      <point x="883" y="0" type="line"/>
      <point x="931" y="240" type="line"/>
      <point x="487" y="240" type="line"/>
      <point x="715" y="432" type="line" smooth="yes"/>
      <point x="971" y="640"/>
      <point x="1051" y="800"/>
      <point x="1099" y="1024" type="curve" smooth="yes"/>
      <point x="1155" y="1296"/>
      <point x="979" y="1504"/>
      <point x="707" y="1504" type="curve" smooth="yes"/>
      <point x="515" y="1504"/>
      <point x="435" y="1440"/>
      <point x="363" y="1408" type="curve"/>
      <point x="307" y="1136" type="line"/>
      <point x="379" y="1168"/>
      <point x="491" y="1248"/>
      <point x="651" y="1248" type="curve" smooth="yes"/>
      <point x="763" y="1248"/>
      <point x="859" y="1168"/>
      <point x="827" y="1024" type="curve" smooth="yes"/>
      <point x="795" y="864"/>
      <point x="723" y="736"/>
      <point x="507" y="560" type="curve" smooth="yes"/>
      <point x="115" y="240" type="line"/>
      <point x="67" y="0" type="line"/>
    </contour>
  </outline>
</glyph>
<glyph name="three" format="1">
  <advance width="1056"/>
  <unicode hex="0033"/>
  <outline>
    <contour>
      <point x="455" y="-32" type="curve" smooth="yes"/>
      <point x="727" y="-32"/>
      <point x="999" y="176"/>
      <point x="1055" y="448" type="curve" smooth="yes"/>
      <point x="1101" y="667"/>
      <point x="995" y="845"/>
      <point x="810" y="905" type="curve"/>
      <point x="1207" y="1232" type="line"/>
      <point x="1255" y="1472" type="line"/>
      <point x="423" y="1472" type="line"/>
      <point x="375" y="1232" type="line"/>
      <point x="887" y="1232" type="line"/>
      <point x="343" y="784" type="line"/>
      <point x="340" y="772" type="line"/>
      <point x="335" y="768" type="line"/>
      <point x="319" y="672" type="line"/>
      <point x="607" y="672" type="line" smooth="yes"/>
      <point x="719" y="672"/>
      <point x="815" y="592"/>
      <point x="783" y="448" type="curve" smooth="yes"/>
      <point x="751" y="304"/>
      <point x="623" y="224"/>
      <point x="511" y="224" type="curve" smooth="yes"/>
      <point x="351" y="224"/>
      <point x="223" y="304"/>
      <point x="167" y="336" type="curve"/>
      <point x="111" y="64" type="line"/>
      <point x="167" y="32"/>
      <point x="263" y="-32"/>
    </contour>
  </outline>
</glyph>
<glyph name="four" format="1">
  <advance width="1013"/>
  <unicode hex="0034"/>
  <outline>
    <contour>
      <point x="983" y="336" type="line"/>
      <point x="1039" y="576" type="line"/>
      <point x="911" y="576" type="line"/>
      <point x="967" y="832" type="line"/>
      <point x="839" y="832" type="line"/>
      <point x="655" y="576" type="line"/>
      <point x="475" y="576" type="line"/>
      <point x="1119" y="1472" type="line"/>
      <point x="847" y="1472" type="line"/>
      <point x="183" y="544" type="line"/>
      <point x="135" y="336" type="line"/>
      <point x="602" y="336" type="line"/>
      <point x="527" y="0" type="line"/>
      <point x="783" y="0" type="line"/>
      <point x="858" y="336" type="line"/>
    </contour>
  </outline>
</glyph>
<glyph name="five" format="1">
  <advance width="978"/>
  <unicode hex="0035"/>
  <outline>
    <contour>
      <point x="315" y="-32" type="curve" smooth="yes"/>
      <point x="667" y="-32"/>
      <point x="923" y="176"/>
      <point x="987" y="496" type="curve" smooth="yes"/>
      <point x="1056" y="801"/>
      <point x="885" y="975"/>
      <point x="578" y="991" type="curve"/>
      <point x="755" y="1232" type="line"/>
      <point x="1067" y="1232" type="line"/>
      <point x="1115" y="1472" type="line"/>
      <point x="651" y="1472" type="line"/>
      <point x="307" y="992" type="line"/>
      <point x="259" y="768" type="line"/>
      <point x="483" y="768" type="line" smooth="yes"/>
      <point x="643" y="768"/>
      <point x="747" y="656"/>
      <point x="715" y="496" type="curve" smooth="yes"/>
      <point x="683" y="336"/>
      <point x="523" y="208"/>
      <point x="363" y="208" type="curve" smooth="yes"/>
      <point x="267" y="208"/>
      <point x="227" y="224"/>
      <point x="163" y="288" type="curve"/>
      <point x="107" y="32" type="line"/>
      <point x="163" y="0"/>
      <point x="219" y="-32"/>
    </contour>
  </outline>
</glyph>
<glyph name="six" format="1">
  <advance width="1120"/>
  <unicode hex="0036"/>
  <outline>
    <contour>
      <point x="552" y="-32" type="curve" smooth="yes"/>
      <point x="808" y="-32"/>
      <point x="1056" y="160"/>
      <point x="1112" y="416" type="curve" smooth="yes"/>
      <point x="1124" y="480" type="line" smooth="yes"/>
      <point x="1180" y="736"/>
      <point x="996" y="928"/>
      <point x="696" y="864" type="curve"/>
      <point x="695" y="864" type="line"/>
      <point x="1128" y="1472" type="line"/>
      <point x="856" y="1472" type="line"/>
      <point x="332" y="736" type="line" smooth="yes"/>
      <point x="264" y="640"/>
      <point x="200" y="496"/>
      <point x="184" y="416" type="curve" smooth="yes"/>
      <point x="128" y="160"/>
      <point x="296" y="-32"/>
    </contour>
    <contour>
      <point x="604" y="208" type="curve" smooth="yes"/>
      <point x="492" y="208"/>
      <point x="416" y="304"/>
      <point x="440" y="416" type="curve" smooth="yes"/>
      <point x="452" y="480" type="line" smooth="yes"/>
      <point x="476" y="592"/>
      <point x="592" y="688"/>
      <point x="704" y="688" type="curve" smooth="yes"/>
      <point x="816" y="688"/>
      <point x="892" y="592"/>
      <point x="868" y="480" type="curve" smooth="yes"/>
      <point x="856" y="416" type="line" smooth="yes"/>
      <point x="832" y="304"/>
      <point x="716" y="208"/>
    </contour>
  </outline>
</glyph>
<glyph name="seven" format="1">
  <advance width="1167"/>
  <unicode hex="0037"/>
  <outline>
    <contour>
      <point x="368" y="0" type="line"/>
      <point x="1392" y="1440" type="line"/>
      <point x="1390" y="1443" type="line"/>
      <point x="1416" y="1472" type="line"/>
      <point x="440" y="1472" type="line"/>
      <point x="388" y="1232" type="line"/>
      <point x="941" y="1232" type="line"/>
      <point x="64" y="0" type="line"/>
    </contour>
  </outline>
</glyph>
<glyph name="eight" format="1">
  <advance width="1120"/>
  <unicode hex="0038"/>
  <outline>
    <contour>
      <point x="553" y="-32" type="curve" smooth="yes"/>
      <point x="809" y="-32"/>
      <point x="1057" y="160"/>
      <point x="1113" y="416" type="curve" smooth="yes"/>
      <point x="1133" y="512" type="line" smooth="yes"/>
      <point x="1159" y="636"/>
      <point x="1118" y="746"/>
      <point x="1033" y="819" type="curve"/>
      <point x="1109" y="876"/>
      <point x="1164" y="959"/>
      <point x="1185" y="1064" type="curve" smooth="yes"/>
      <point x="1197" y="1120" type="line" smooth="yes"/>
      <point x="1245" y="1344"/>
      <point x="1109" y="1504"/>
      <point x="881" y="1504" type="curve" smooth="yes"/>
      <point x="653" y="1504"/>
      <point x="445" y="1344"/>
      <point x="397" y="1120" type="curve" smooth="yes"/>
      <point x="385" y="1064" type="line" smooth="yes"/>
      <point x="364" y="959"/>
      <point x="385" y="877"/>
      <point x="436" y="820" type="curve"/>
      <point x="319" y="747"/>
      <point x="232" y="637"/>
      <point x="205" y="512" type="curve" smooth="yes"/>
      <point x="185" y="416" type="line" smooth="yes"/>
      <point x="129" y="160"/>
      <point x="297" y="-32"/>
    </contour>
    <contour>
      <point x="929" y="1064" type="line" smooth="yes"/>
      <point x="913" y="984"/>
      <point x="845" y="912"/>
      <point x="753" y="912" type="curve" smooth="yes"/>
      <point x="665" y="912"/>
      <point x="625" y="984"/>
      <point x="641" y="1064" type="curve" smooth="yes"/>
      <point x="653" y="1120" type="line" smooth="yes"/>
      <point x="673" y="1200"/>
      <point x="741" y="1272"/>
      <point x="829" y="1272" type="curve" smooth="yes"/>
      <point x="921" y="1272"/>
      <point x="961" y="1200"/>
      <point x="941" y="1120" type="curve" smooth="yes"/>
    </contour>
    <contour>
      <point x="877" y="512" type="curve" smooth="yes"/>
      <point x="857" y="416" type="line" smooth="yes"/>
      <point x="833" y="304"/>
      <point x="717" y="208"/>
      <point x="605" y="208" type="curve" smooth="yes"/>
      <point x="493" y="208"/>
      <point x="417" y="304"/>
      <point x="441" y="416" type="curve" smooth="yes"/>
      <point x="461" y="512" type="line" smooth="yes"/>
      <point x="485" y="624"/>
      <point x="601" y="720"/>
      <point x="713" y="720" type="curve" smooth="yes"/>
      <point x="825" y="720"/>
      <point x="901" y="624"/>
    </contour>
  </outline>
</glyph>
<glyph name="nine" format="1">
  <advance width="1120"/>
  <unicode hex="0039"/>
  <outline>
    <contour>
      <point x="576" y="0" type="line"/>
      <point x="1100" y="736" type="line" smooth="yes"/>
      <point x="1168" y="832"/>
      <point x="1232" y="976"/>
      <point x="1248" y="1056" type="curve" smooth="yes"/>
      <point x="1304" y="1312"/>
      <point x="1136" y="1504"/>
      <point x="880" y="1504" type="curve" smooth="yes"/>
      <point x="624" y="1504"/>
      <point x="376" y="1312"/>
      <point x="320" y="1056" type="curve" smooth="yes"/>
      <point x="308" y="992" type="line" smooth="yes"/>
      <point x="252" y="736"/>
      <point x="436" y="544"/>
      <point x="736" y="608" type="curve"/>
      <point x="304" y="0" type="line"/>
    </contour>
    <contour>
      <point x="828" y="1264" type="curve" smooth="yes"/>
      <point x="940" y="1264"/>
      <point x="1016" y="1168"/>
      <point x="992" y="1056" type="curve" smooth="yes"/>
      <point x="980" y="992" type="line" smooth="yes"/>
      <point x="956" y="880"/>
      <point x="840" y="784"/>
      <point x="728" y="784" type="curve" smooth="yes"/>
      <point x="616" y="784"/>
      <point x="540" y="880"/>
      <point x="564" y="992" type="curve" smooth="yes"/>
      <point x="576" y="1056" type="line" smooth="yes"/>
      <point x="600" y="1168"/>
      <point x="716" y="1264"/>
    </contour>
  </outline>
</glyph>
<glyph name="colon" format="1">
  <advance width="467"/>
  <unicode hex="003A"/>
  <outline>
    <contour>
      <point x="493" y="576" type="line"/>
      <point x="553" y="864" type="line"/>
      <point x="281" y="864" type="line"/>
      <point x="221" y="576" type="line"/>
    </contour>
    <contour>
      <point x="369" y="0" type="line"/>
      <point x="429" y="288" type="line"/>
      <point x="157" y="288" type="line"/>
      <point x="97" y="0" type="line"/>
    </contour>
  </outline>
</glyph>
<glyph name="semicolon" format="1">
  <advance width="468"/>
  <unicode hex="003B"/>
  <outline>
    <contour>
      <point x="552" y="864" type="line"/>
      <point x="280" y="864" type="line"/>
      <point x="220" y="576" type="line"/>
      <point x="492" y="576" type="line"/>
    </contour>
    <contour>
      <point x="212" y="0" type="line"/>
      <point x="168" y="-208" type="line"/>
      <point x="248" y="-208" type="line"/>
      <point x="372" y="0" type="line"/>
      <point x="432" y="288" type="line"/>
      <point x="160" y="288" type="line"/>
      <point x="100" y="0" type="line"/>
    </contour>
  </outline>
</glyph>
<glyph name="question" format="1">
  <advance width="881"/>
  <unicode hex="003F"/>
  <outline>
    <contour>
      <point x="460" y="816" type="line" smooth="yes"/>
      <point x="384" y="752"/>
      <point x="356" y="688"/>
      <point x="328" y="560" type="curve" smooth="yes"/>
      <point x="312" y="496" type="line"/>
      <point x="584" y="496" type="line"/>
      <point x="600" y="560" type="line"/>
      <point x="612" y="624"/>
      <point x="620" y="656"/>
      <point x="660" y="688" type="curve" smooth="yes"/>
      <point x="736" y="752" type="line" smooth="yes"/>
      <point x="872" y="864"/>
      <point x="984" y="944"/>
      <point x="1020" y="1104" type="curve" smooth="yes"/>
      <point x="1068" y="1328"/>
      <point x="960" y="1504"/>
      <point x="656" y="1504" type="curve" smooth="yes"/>
      <point x="576" y="1504"/>
      <point x="508" y="1488"/>
      <point x="404" y="1440" type="curve"/>
      <point x="348" y="1184" type="line"/>
      <point x="456" y="1248"/>
      <point x="524" y="1264"/>
      <point x="604" y="1264" type="curve" smooth="yes"/>
      <point x="700" y="1264"/>
      <point x="768" y="1200"/>
      <point x="748" y="1104" type="curve" smooth="yes"/>
      <point x="728" y="1024"/>
      <point x="676" y="992"/>
      <point x="580" y="912" type="curve" smooth="yes"/>
    </contour>
    <contour>
      <point x="480" y="0" type="line"/>
      <point x="540" y="288" type="line"/>
      <point x="268" y="288" type="line"/>
      <point x="208" y="0" type="line"/>
    </contour>
  </outline>
</glyph>
<glyph name="at" format="1">
  <advance width="1857"/>
  <unicode hex="0040"/>
  <outline>
    <contour>
      <point x="866" y="-288" type="curve"/>
      <point x="906" y="-112" type="line"/>
      <point x="590" y="-112"/>
      <point x="294" y="32"/>
      <point x="410" y="576" type="curve" smooth="yes"/>
      <point x="426" y="640" type="line" smooth="yes"/>
      <point x="514" y="1056"/>
      <point x="854" y="1328"/>
      <point x="1210" y="1328" type="curve" smooth="yes"/>
      <point x="1626" y="1328"/>
      <point x="1790" y="1044"/>
      <point x="1706" y="640" type="curve" smooth="yes"/>
      <point x="1690" y="576" type="line" smooth="yes"/>
      <point x="1602" y="160"/>
      <point x="1442" y="152"/>
      <point x="1378" y="152" type="curve" smooth="yes"/>
      <point x="1250" y="152"/>
      <point x="1246" y="336"/>
      <point x="1294" y="452" type="curve" smooth="yes"/>
      <point x="1534" y="1024" type="line"/>
      <point x="1466" y="1044"/>
      <point x="1386" y="1052"/>
      <point x="1282" y="1052" type="curve" smooth="yes"/>
      <point x="1050" y="1052"/>
      <point x="694" y="860"/>
      <point x="602" y="428" type="curve" smooth="yes"/>
      <point x="566" y="252"/>
      <point x="654" y="168"/>
      <point x="802" y="168" type="curve" smooth="yes"/>
      <point x="895" y="168"/>
      <point x="993" y="224"/>
      <point x="1066" y="290" type="curve"/>
      <point x="1066" y="288" type="line"/>
      <point x="1030" y="128"/>
      <point x="1146" y="-32"/>
      <point x="1306" y="-32" type="curve" smooth="yes"/>
      <point x="1462" y="-32"/>
      <point x="1766" y="32"/>
      <point x="1870" y="512" type="curve" smooth="yes"/>
      <point x="1910" y="704" type="line" smooth="yes"/>
      <point x="2014" y="1184"/>
      <point x="1762" y="1504"/>
      <point x="1250" y="1504" type="curve" smooth="yes"/>
      <point x="802" y="1504"/>
      <point x="350" y="1184"/>
      <point x="246" y="704" type="curve" smooth="yes"/>
      <point x="206" y="512" type="line" smooth="yes"/>
      <point x="78" y="-96"/>
      <point x="486" y="-288"/>
    </contour>
    <contour>
      <point x="902" y="352" type="curve" smooth="yes"/>
      <point x="826" y="352"/>
      <point x="798" y="404"/>
      <point x="862" y="556" type="curve" smooth="yes"/>
      <point x="942" y="740"/>
      <point x="1086" y="872"/>
      <point x="1230" y="872" type="curve" smooth="yes"/>
      <point x="1256" y="872" type="line"/>
      <point x="1078" y="456" type="line"/>
      <point x="1022" y="369"/>
      <point x="946" y="352"/>
    </contour>
  </outline>
</glyph>
<glyph name="A" format="1">
  <advance width="1048"/>
  <unicode hex="0041"/>
  <outline>
    <contour>
      <point x="752" y="448" type="line"/>
      <point x="479" y="448" type="line"/>
      <point x="752" y="1119" type="line"/>
    </contour>
    <contour>
      <point x="752" y="0" type="line"/>
      <point x="1016" y="0" type="line"/>
      <point x="1016" y="1472" type="line"/>
      <point x="664" y="1472" type="line"/>
      <point x="32" y="0" type="line"/>
      <point x="296" y="0" type="line"/>
      <point x="381" y="208" type="line"/>
      <point x="752" y="208" type="line"/>
    </contour>
  </outline>
</glyph>
<glyph name="B" format="1">
  <advance width="1093"/>
  <unicode hex="0042"/>
  <outline>
    <contour>
      <point x="545" y="0" type="line" smooth="yes"/>
      <point x="929" y="0"/>
      <point x="1129" y="244"/>
      <point x="1129" y="532" type="curve" smooth="yes"/>
      <point x="1129" y="664"/>
      <point x="1055" y="738"/>
      <point x="960" y="777" type="curve"/>
      <point x="1097" y="845"/>
      <point x="1201" y="974"/>
      <point x="1201" y="1184" type="curve" smooth="yes"/>
      <point x="1201" y="1360"/>
      <point x="1077" y="1472"/>
      <point x="777" y="1472" type="curve" smooth="yes"/>
      <point x="409" y="1472" type="line"/>
      <point x="97" y="0" type="line"/>
    </contour>
    <contour>
      <point x="773" y="1232" type="line" smooth="yes"/>
      <point x="869" y="1232"/>
      <point x="917" y="1172"/>
      <point x="917" y="1104" type="curve" smooth="yes"/>
      <point x="917" y="988"/>
      <point x="833" y="880"/>
      <point x="701" y="880" type="curve" smooth="yes"/>
      <point x="555" y="880" type="line"/>
      <point x="630" y="1232" type="line"/>
    </contour>
    <contour>
      <point x="857" y="496" type="curve" smooth="yes"/>
      <point x="857" y="376"/>
      <point x="753" y="240"/>
      <point x="613" y="240" type="curve" smooth="yes"/>
      <point x="421" y="240" type="line"/>
      <point x="509" y="656" type="line"/>
      <point x="701" y="656" type="line" smooth="yes"/>
      <point x="797" y="656"/>
      <point x="857" y="588"/>
    </contour>
  </outline>
</glyph>
<glyph name="C" format="1">
  <advance width="827"/>
  <unicode hex="0043"/>
  <outline>
    <contour>
      <point x="798" y="16" type="curve"/>
      <point x="846" y="256" type="line"/>
      <point x="778" y="224"/>
      <point x="694" y="208"/>
      <point x="614" y="208" type="curve" smooth="yes"/>
      <point x="454" y="208"/>
      <point x="414" y="320"/>
      <point x="446" y="480" type="curve" smooth="yes"/>
      <point x="554" y="992" type="line" smooth="yes"/>
      <point x="590" y="1152"/>
      <point x="678" y="1264"/>
      <point x="838" y="1264" type="curve" smooth="yes"/>
      <point x="918" y="1264"/>
      <point x="994" y="1248"/>
      <point x="1050" y="1216" type="curve"/>
      <point x="1102" y="1456" type="line"/>
      <point x="1074" y="1472"/>
      <point x="986" y="1504"/>
      <point x="890" y="1504" type="curve" smooth="yes"/>
      <point x="602" y="1504"/>
      <point x="338" y="1344"/>
      <point x="282" y="1024" type="curve" smooth="yes"/>
      <point x="162" y="448" type="line" smooth="yes"/>
      <point x="106" y="192"/>
      <point x="274" y="-32"/>
      <point x="562" y="-32" type="curve" smooth="yes"/>
      <point x="658" y="-32"/>
      <point x="762" y="0"/>
    </contour>
  </outline>
</glyph>
<glyph name="D" format="1">
  <advance width="1027"/>
  <unicode hex="0044"/>
  <outline>
    <contour>
      <point x="725" y="1232" type="line" smooth="yes"/>
      <point x="853" y="1232"/>
      <point x="933" y="1152"/>
      <point x="893" y="960" type="curve" smooth="yes"/>
      <point x="797" y="512" type="line" smooth="yes"/>
      <point x="757" y="320"/>
      <point x="645" y="240"/>
      <point x="517" y="240" type="curve" smooth="yes"/>
      <point x="420" y="240" type="line"/>
      <point x="630" y="1232" type="line"/>
    </contour>
    <contour>
      <point x="97" y="0" type="line"/>
      <point x="529" y="0" type="line" smooth="yes"/>
      <point x="881" y="0"/>
      <point x="1001" y="192"/>
      <point x="1065" y="480" type="curve" smooth="yes"/>
      <point x="1173" y="992" type="line" smooth="yes"/>
      <point x="1233" y="1280"/>
      <point x="1033" y="1472"/>
      <point x="713" y="1472" type="curve" smooth="yes"/>
      <point x="409" y="1472" type="line"/>
    </contour>
  </outline>
</glyph>
<glyph name="E" format="1">
  <advance width="866"/>
  <unicode hex="0045"/>
  <outline>
    <contour>
      <point x="97" y="0" type="line"/>
      <point x="801" y="0" type="line"/>
      <point x="853" y="240" type="line"/>
      <point x="421" y="240" type="line"/>
      <point x="509" y="656" type="line"/>
      <point x="877" y="656" type="line"/>
      <point x="929" y="896" type="line"/>
      <point x="561" y="896" type="line"/>
      <point x="629" y="1232" type="line"/>
      <point x="1061" y="1232" type="line"/>
      <point x="1113" y="1472" type="line"/>
      <point x="409" y="1472" type="line"/>
    </contour>
  </outline>
</glyph>
<glyph name="F" format="1">
  <advance width="864"/>
  <unicode hex="0046"/>
  <outline>
    <contour>
      <point x="97" y="0" type="line"/>
      <point x="369" y="0" type="line"/>
      <point x="509" y="656" type="line"/>
      <point x="877" y="656" type="line"/>
      <point x="929" y="896" type="line"/>
      <point x="561" y="896" type="line"/>
      <point x="629" y="1232" type="line"/>
      <point x="1061" y="1232" type="line"/>
      <point x="1113" y="1472" type="line"/>
      <point x="409" y="1472" type="line"/>
    </contour>
  </outline>
</glyph>
<glyph name="G" format="1">
  <advance width="994"/>
  <unicode hex="0047"/>
  <outline>
    <contour>
      <point x="958" y="128" type="curve"/>
      <point x="1094" y="768" type="line"/>
      <point x="822" y="768" type="line"/>
      <point x="709" y="239" type="line"/>
      <point x="678" y="221"/>
      <point x="647" y="208"/>
      <point x="606" y="208" type="curve" smooth="yes"/>
      <point x="446" y="208"/>
      <point x="406" y="320"/>
      <point x="438" y="480" type="curve" smooth="yes"/>
      <point x="550" y="992" type="line" smooth="yes"/>
      <point x="582" y="1152"/>
      <point x="734" y="1264"/>
      <point x="894" y="1264" type="curve" smooth="yes"/>
      <point x="974" y="1264"/>
      <point x="1066" y="1248"/>
      <point x="1126" y="1216" type="curve"/>
      <point x="1174" y="1456" type="line"/>
      <point x="1146" y="1472"/>
      <point x="978" y="1504"/>
      <point x="882" y="1504" type="curve" smooth="yes"/>
      <point x="594" y="1504"/>
      <point x="338" y="1280"/>
      <point x="282" y="1024" type="curve" smooth="yes"/>
      <point x="162" y="448" type="line" smooth="yes"/>
      <point x="106" y="192"/>
      <point x="266" y="-32"/>
      <point x="554" y="-32" type="curve" smooth="yes"/>
      <point x="682" y="-32"/>
      <point x="838" y="16"/>
    </contour>
  </outline>
</glyph>
<glyph name="H" format="1">
  <advance width="1073"/>
  <unicode hex="0048"/>
  <outline>
    <contour>
      <point x="97" y="0" type="line"/>
      <point x="377" y="0" type="line"/>
      <point x="517" y="656" type="line"/>
      <point x="837" y="656" type="line"/>
      <point x="697" y="0" type="line"/>
      <point x="977" y="0" type="line"/>
      <point x="1289" y="1472" type="line"/>
      <point x="1009" y="1472" type="line"/>
      <point x="889" y="896" type="line"/>
      <point x="569" y="896" type="line"/>
      <point x="689" y="1472" type="line"/>
      <point x="409" y="1472" type="line"/>
    </contour>
  </outline>
</glyph>
<glyph name="I" format="1">
  <advance width="457"/>
  <unicode hex="0049"/>
  <outline>
    <contour>
      <point x="97" y="0" type="curve"/>
      <point x="361" y="0" type="line"/>
      <point x="673" y="1472" type="line"/>
      <point x="409" y="1472" type="line"/>
      <point x="149" y="240"/>
      <point x="97" y="0"/>
    </contour>
  </outline>
</glyph>
<glyph name="J" format="1">
  <advance width="706"/>
  <unicode hex="004A"/>
  <outline>
    <contour>
      <point x="651" y="1472" type="line"/>
      <point x="435" y="448" type="line" smooth="yes"/>
      <point x="411" y="336"/>
      <point x="327" y="208"/>
      <point x="207" y="208" type="curve" smooth="yes"/>
      <point x="143" y="208"/>
      <point x="115" y="224"/>
      <point x="83" y="240" type="curve"/>
      <point x="39" y="16" type="line"/>
      <point x="63" y="-16"/>
      <point x="155" y="-32"/>
      <point x="219" y="-32" type="curve" smooth="yes"/>
      <point x="507" y="-32"/>
      <point x="659" y="192"/>
      <point x="719" y="480" type="curve" smooth="yes"/>
      <point x="931" y="1472" type="line"/>
    </contour>
  </outline>
</glyph>
<glyph name="K" format="1">
  <advance width="1009"/>
  <unicode hex="004B"/>
  <outline>
    <contour>
      <point x="681" y="0" type="line"/>
      <point x="977" y="0" type="line"/>
      <point x="809" y="800" type="line"/>
      <point x="1289" y="1472" type="line"/>
      <point x="1025" y="1472" type="line"/>
      <point x="547" y="803" type="line"/>
      <point x="689" y="1472" type="line"/>
      <point x="409" y="1472" type="line"/>
      <point x="97" y="0" type="line"/>
      <point x="377" y="0" type="line"/>
      <point x="530" y="720" type="line"/>
    </contour>
  </outline>
</glyph>
<glyph name="L" format="1">
  <advance width="842"/>
  <unicode hex="004C"/>
  <outline>
    <contour>
      <point x="97" y="0" type="line"/>
      <point x="809" y="0" type="line"/>
      <point x="861" y="240" type="line"/>
      <point x="429" y="240" type="line"/>
      <point x="689" y="1472" type="line"/>
      <point x="409" y="1472" type="line"/>
    </contour>
  </outline>
</glyph>
<glyph name="M" format="1">
  <advance width="1297"/>
  <unicode hex="004D"/>
  <outline>
    <contour>
      <point x="569" y="896" type="line"/>
      <point x="757" y="512" type="line"/>
      <point x="1113" y="896" type="line"/>
      <point x="921" y="0" type="line"/>
      <point x="1201" y="0" type="line"/>
      <point x="1513" y="1472" type="line"/>
      <point x="1313" y="1472" type="line"/>
      <point x="845" y="928" type="line"/>
      <point x="609" y="1472" type="line"/>
      <point x="409" y="1472" type="line"/>
      <point x="97" y="0" type="line"/>
      <point x="377" y="0" type="line"/>
    </contour>
  </outline>
</glyph>
<glyph name="N" format="1">
  <advance width="1121"/>
  <unicode hex="004E"/>
  <outline>
    <contour>
      <point x="553" y="832" type="line"/>
      <point x="793" y="0" type="line"/>
      <point x="1025" y="0" type="line"/>
      <point x="1337" y="1472" type="line"/>
      <point x="1057" y="1472" type="line"/>
      <point x="881" y="640" type="line"/>
      <point x="641" y="1472" type="line"/>
      <point x="409" y="1472" type="line"/>
      <point x="97" y="0" type="line"/>
      <point x="377" y="0" type="line"/>
    </contour>
  </outline>
</glyph>
<glyph name="O" format="1">
  <advance width="1139"/>
  <unicode hex="004F"/>
  <outline>
    <contour>
      <point x="1166" y="432" type="curve" smooth="yes"/>
      <point x="1274" y="936" type="line" smooth="yes"/>
      <point x="1282" y="976"/>
      <point x="1286" y="1016"/>
      <point x="1286" y="1052" type="curve" smooth="yes"/>
      <point x="1286" y="1280"/>
      <point x="1126" y="1504"/>
      <point x="838" y="1504" type="curve" smooth="yes"/>
      <point x="550" y="1504"/>
      <point x="350" y="1328"/>
      <point x="290" y="1040" type="curve" smooth="yes"/>
      <point x="178" y="536" type="line" smooth="yes"/>
      <point x="170" y="500"/>
      <point x="166" y="460"/>
      <point x="166" y="424" type="curve" smooth="yes"/>
      <point x="166" y="192"/>
      <point x="326" y="-32"/>
      <point x="638" y="-32" type="curve" smooth="yes"/>
      <point x="990" y="-32"/>
      <point x="1106" y="144"/>
    </contour>
    <contour>
      <point x="998" y="968" type="curve" smooth="yes"/>
      <point x="882" y="400" type="line" smooth="yes"/>
      <point x="854" y="272"/>
      <point x="774" y="208"/>
      <point x="646" y="208" type="curve" smooth="yes"/>
      <point x="526" y="208"/>
      <point x="446" y="332"/>
      <point x="446" y="448" type="curve" smooth="yes"/>
      <point x="446" y="468"/>
      <point x="450" y="484"/>
      <point x="454" y="504" type="curve" smooth="yes"/>
      <point x="570" y="1052" type="line" smooth="yes"/>
      <point x="598" y="1196"/>
      <point x="674" y="1264"/>
      <point x="818" y="1264" type="curve" smooth="yes"/>
      <point x="962" y="1264"/>
      <point x="1034" y="1144"/>
    </contour>
  </outline>
</glyph>
<glyph name="P" format="1">
  <advance width="1028"/>
  <unicode hex="0050"/>
  <outline>
    <contour>
      <point x="725" y="1232" type="line" smooth="yes"/>
      <point x="869" y="1232"/>
      <point x="925" y="1120"/>
      <point x="901" y="992" type="curve" smooth="yes"/>
      <point x="873" y="864"/>
      <point x="769" y="752"/>
      <point x="625" y="752" type="curve" smooth="yes"/>
      <point x="536" y="752" type="line"/>
      <point x="638" y="1232" type="line"/>
    </contour>
    <contour>
      <point x="605" y="512" type="line" smooth="yes"/>
      <point x="992" y="512"/>
      <point x="1185" y="808"/>
      <point x="1185" y="1112" type="curve" smooth="yes"/>
      <point x="1185" y="1332"/>
      <point x="1037" y="1472"/>
      <point x="745" y="1472" type="curve" smooth="yes"/>
      <point x="409" y="1472" type="line"/>
      <point x="97" y="0" type="line"/>
      <point x="377" y="0" type="line"/>
      <point x="485" y="512" type="line"/>
    </contour>
  </outline>
</glyph>
<glyph name="Q" format="1">
  <advance width="1173"/>
  <unicode hex="0051"/>
  <outline>
    <contour>
      <point x="1125" y="0" type="line"/>
      <point x="1071" y="193" type="line"/>
      <point x="1115" y="256"/>
      <point x="1146" y="336"/>
      <point x="1166" y="432" type="curve" smooth="yes"/>
      <point x="1274" y="936" type="line" smooth="yes"/>
      <point x="1282" y="976"/>
      <point x="1286" y="1016"/>
      <point x="1286" y="1052" type="curve" smooth="yes"/>
      <point x="1286" y="1280"/>
      <point x="1126" y="1504"/>
      <point x="838" y="1504" type="curve" smooth="yes"/>
      <point x="550" y="1504"/>
      <point x="350" y="1328"/>
      <point x="290" y="1040" type="curve" smooth="yes"/>
      <point x="178" y="536" type="line" smooth="yes"/>
      <point x="170" y="500"/>
      <point x="166" y="460"/>
      <point x="166" y="424" type="curve" smooth="yes"/>
      <point x="166" y="192"/>
      <point x="286" y="0"/>
      <point x="597" y="0" type="curve" smooth="yes"/>
    </contour>
    <contour>
      <point x="998" y="968" type="curve" smooth="yes"/>
      <point x="886" y="416" type="line" smooth="yes"/>
      <point x="858" y="288"/>
      <point x="778" y="224"/>
      <point x="650" y="224" type="curve" smooth="yes"/>
      <point x="530" y="224"/>
      <point x="450" y="348"/>
      <point x="450" y="464" type="curve" smooth="yes"/>
      <point x="450" y="484"/>
      <point x="454" y="500"/>
      <point x="458" y="520" type="curve" smooth="yes"/>
      <point x="570" y="1052" type="line" smooth="yes"/>
      <point x="598" y="1196"/>
      <point x="674" y="1264"/>
      <point x="818" y="1264" type="curve" smooth="yes"/>
      <point x="962" y="1264"/>
      <point x="1034" y="1144"/>
    </contour>
  </outline>
</glyph>
<glyph name="R" format="1">
  <advance width="1113"/>
  <unicode hex="0052"/>
  <outline>
    <contour>
      <point x="725" y="1232" type="line" smooth="yes"/>
      <point x="869" y="1232"/>
      <point x="925" y="1120"/>
      <point x="901" y="992" type="curve" smooth="yes"/>
      <point x="873" y="864"/>
      <point x="769" y="752"/>
      <point x="625" y="752" type="curve" smooth="yes"/>
      <point x="536" y="752" type="line"/>
      <point x="638" y="1232" type="line"/>
    </contour>
    <contour>
      <point x="605" y="512" type="line" smooth="yes"/>
      <point x="616" y="512"/>
      <point x="628" y="512"/>
      <point x="639" y="513" type="curve"/>
      <point x="761" y="0" type="line"/>
      <point x="1049" y="0" type="line"/>
      <point x="909" y="590" type="line"/>
      <point x="1082" y="692"/>
      <point x="1185" y="885"/>
      <point x="1186" y="1115" type="curve" smooth="yes"/>
      <point x="1185" y="1332"/>
      <point x="1037" y="1472"/>
      <point x="745" y="1472" type="curve" smooth="yes"/>
      <point x="409" y="1472" type="line"/>
      <point x="97" y="0" type="line"/>
      <point x="377" y="0" type="line"/>
      <point x="485" y="512" type="line"/>
    </contour>
  </outline>
</glyph>
<glyph name="S" format="1">
  <advance width="822"/>
  <unicode hex="0053"/>
  <outline>
    <contour>
      <point x="801" y="720" type="curve" smooth="yes"/>
      <point x="649" y="912" type="line" smooth="yes"/>
      <point x="617" y="952"/>
      <point x="545" y="1028"/>
      <point x="545" y="1092" type="curve" smooth="yes"/>
      <point x="545" y="1180"/>
      <point x="629" y="1264"/>
      <point x="757" y="1264" type="curve" smooth="yes"/>
      <point x="837" y="1264"/>
      <point x="909" y="1232"/>
      <point x="969" y="1200" type="curve"/>
      <point x="1017" y="1440" type="line"/>
      <point x="965" y="1488"/>
      <point x="825" y="1504"/>
      <point x="713" y="1504" type="curve" smooth="yes"/>
      <point x="389" y="1504"/>
      <point x="265" y="1288"/>
      <point x="265" y="1013" type="curve" smooth="yes"/>
      <point x="265" y="920"/>
      <point x="297" y="856"/>
      <point x="365" y="768" type="curve" smooth="yes"/>
      <point x="513" y="576" type="line" smooth="yes"/>
      <point x="565" y="508"/>
      <point x="569" y="480"/>
      <point x="569" y="384" type="curve" smooth="yes"/>
      <point x="569" y="304"/>
      <point x="469" y="208"/>
      <point x="373" y="208" type="curve" smooth="yes"/>
      <point x="293" y="208"/>
      <point x="217" y="224"/>
      <point x="129" y="272" type="curve"/>
      <point x="77" y="32" type="line"/>
      <point x="145" y="-16"/>
      <point x="321" y="-32"/>
      <point x="385" y="-32" type="curve" smooth="yes"/>
      <point x="689" y="-32"/>
      <point x="877" y="164"/>
      <point x="877" y="488" type="curve" smooth="yes"/>
      <point x="877" y="596"/>
      <point x="829" y="684"/>
    </contour>
  </outline>
</glyph>
<glyph name="T" format="1">
  <advance width="889"/>
  <unicode hex="0054"/>
  <outline>
    <contour>
      <point x="306" y="0" type="line"/>
      <point x="586" y="0" type="line"/>
      <point x="846" y="1232" type="line"/>
      <point x="1118" y="1232" type="line"/>
      <point x="1170" y="1472" type="line"/>
      <point x="346" y="1472" type="line"/>
      <point x="294" y="1232" type="line"/>
      <point x="566" y="1232" type="line"/>
    </contour>
  </outline>
</glyph>
<glyph name="U" format="1">
  <advance width="1058"/>
  <unicode hex="0055"/>
  <outline>
    <contour>
      <point x="401" y="1472" type="line"/>
      <point x="197" y="500" type="line" smooth="yes"/>
      <point x="141" y="228"/>
      <point x="297" y="-32"/>
      <point x="601" y="-32" type="curve" smooth="yes"/>
      <point x="833" y="-32"/>
      <point x="989" y="88"/>
      <point x="1057" y="408" type="curve" smooth="yes"/>
      <point x="1281" y="1472" type="line"/>
      <point x="1001" y="1472" type="line"/>
      <point x="769" y="376" type="line" smooth="yes"/>
      <point x="749" y="280"/>
      <point x="677" y="256"/>
      <point x="613" y="256" type="curve" smooth="yes"/>
      <point x="517" y="256"/>
      <point x="445" y="348"/>
      <point x="469" y="468" type="curve" smooth="yes"/>
      <point x="681" y="1472" type="line"/>
    </contour>
  </outline>
</glyph>
<glyph name="V" format="1">
  <advance width="1048"/>
  <unicode hex="0056"/>
  <outline>
    <contour>
      <point x="345" y="0" type="line"/>
      <point x="697" y="0" type="line"/>
      <point x="1329" y="1472" type="line"/>
      <point x="1065" y="1472" type="line"/>
      <point x="625" y="393" type="line"/>
      <point x="625" y="1472" type="line"/>
      <point x="345" y="1472" type="line"/>
    </contour>
  </outline>
</glyph>
<glyph name="W" format="1">
  <advance width="1624"/>
  <unicode hex="0057"/>
  <outline>
    <contour>
      <point x="345" y="0" type="line"/>
      <point x="673" y="0" type="line"/>
      <point x="968" y="787" type="line"/>
      <point x="921" y="0" type="line"/>
      <point x="1273" y="0" type="line"/>
      <point x="1905" y="1472" type="line"/>
      <point x="1641" y="1472" type="line"/>
      <point x="1200" y="391" type="line"/>
      <point x="1265" y="1472" type="line"/>
      <point x="1009" y="1472" type="line"/>
      <point x="625" y="417" type="line"/>
      <point x="625" y="1472" type="line"/>
      <point x="345" y="1472" type="line"/>
    </contour>
  </outline>
</glyph>
<glyph name="X" format="1">
  <advance width="1120"/>
  <unicode hex="0058"/>
  <outline>
    <contour>
      <point x="792" y="0" type="line"/>
      <point x="1088" y="0" type="line"/>
      <point x="904" y="784" type="line"/>
      <point x="1384" y="1472" type="line"/>
      <point x="1120" y="1472" type="line"/>
      <point x="808" y="1025" type="line"/>
      <point x="704" y="1472" type="line"/>
      <point x="408" y="1472" type="line"/>
      <point x="568" y="784" type="line"/>
      <point x="32" y="0" type="line"/>
      <point x="296" y="0" type="line"/>
      <point x="665" y="540" type="line"/>
    </contour>
  </outline>
</glyph>
<glyph name="Y" format="1">
  <advance width="1040"/>
  <unicode hex="0059"/>
  <outline>
    <contour>
      <point x="517" y="732" type="line"/>
      <point x="361" y="0" type="line"/>
      <point x="641" y="0" type="line"/>
      <point x="805" y="732" type="line"/>
      <point x="1321" y="1472" type="line"/>
      <point x="1057" y="1472" type="line"/>
      <point x="737" y="1014" type="line"/>
      <point x="641" y="1472" type="line"/>
      <point x="345" y="1472" type="line"/>
    </contour>
  </outline>
</glyph>
<glyph name="Z" format="1">
  <advance width="899"/>
  <unicode hex="005A"/>
  <outline>
    <contour>
      <point x="834" y="0" type="line"/>
      <point x="886" y="240" type="line"/>
      <point x="414" y="240" type="line"/>
      <point x="1106" y="1280" type="line"/>
      <point x="1146" y="1472" type="line"/>
      <point x="378" y="1472" type="line"/>
      <point x="326" y="1232" type="line"/>
      <point x="798" y="1232" type="line"/>
      <point x="106" y="192" type="line"/>
      <point x="66" y="0" type="line"/>
    </contour>
  </outline>
</glyph>
<glyph name="backslash" format="1">
  <advance width="1193"/>
  <unicode hex="005C"/>
  <outline>
    <contour>
      <point x="633" y="1472" type="line"/>
      <point x="409" y="1472" type="line"/>
      <point x="873" y="0" type="line"/>
      <point x="1097" y="0" type="line"/>
    </contour>
  </outline>
</glyph>
<glyph name="a" format="1">
  <advance width="983"/>
  <unicode hex="0061"/>
  <outline>
    <contour>
      <point x="520" y="192" type="curve" smooth="yes"/>
      <point x="424" y="192"/>
      <point x="376" y="256"/>
      <point x="416" y="448" type="curve" smooth="yes"/>
      <point x="464" y="672"/>
      <point x="612" y="832"/>
      <point x="784" y="832" type="curve" smooth="yes"/>
      <point x="819" y="832" type="line"/>
      <point x="717" y="359" type="line"/>
      <point x="677" y="221"/>
      <point x="580" y="192"/>
    </contour>
    <contour>
      <point x="732" y="0" type="line"/>
      <point x="904" y="0" type="line"/>
      <point x="1120" y="1024" type="line"/>
      <point x="1032" y="1048"/>
      <point x="928" y="1056"/>
      <point x="800" y="1056" type="curve" smooth="yes"/>
      <point x="512" y="1056"/>
      <point x="132" y="820"/>
      <point x="132" y="288" type="curve" smooth="yes"/>
      <point x="132" y="68"/>
      <point x="260" y="-32"/>
      <point x="440" y="-32" type="curve" smooth="yes"/>
      <point x="542" y="-32"/>
      <point x="638" y="22"/>
      <point x="709" y="91" type="curve"/>
    </contour>
  </outline>
</glyph>
<glyph name="b" format="1">
  <advance width="1009"/>
  <unicode hex="0062"/>
  <outline>
    <contour>
      <point x="577" y="-32" type="curve" smooth="yes"/>
      <point x="769" y="-32"/>
      <point x="973" y="128"/>
      <point x="1013" y="320" type="curve" smooth="yes"/>
      <point x="1093" y="704" type="line" smooth="yes"/>
      <point x="1133" y="896"/>
      <point x="1001" y="1056"/>
      <point x="809" y="1056" type="curve" smooth="yes"/>
      <point x="717" y="1056"/>
      <point x="632" y="1020"/>
      <point x="564" y="961" type="curve"/>
      <point x="685" y="1536" type="line"/>
      <point x="409" y="1472" type="line"/>
      <point x="97" y="0" type="line"/>
      <point x="265" y="0" type="line"/>
      <point x="346" y="113" type="line"/>
      <point x="382" y="26"/>
      <point x="462" y="-32"/>
    </contour>
    <contour>
      <point x="561" y="192" type="curve" smooth="yes"/>
      <point x="482" y="192"/>
      <point x="429" y="250"/>
      <point x="430" y="324" type="curve"/>
      <point x="508" y="697" type="line"/>
      <point x="538" y="773"/>
      <point x="617" y="832"/>
      <point x="697" y="832" type="curve" smooth="yes"/>
      <point x="785" y="832"/>
      <point x="841" y="760"/>
      <point x="821" y="672" type="curve" smooth="yes"/>
      <point x="753" y="352" type="line" smooth="yes"/>
      <point x="737" y="264"/>
      <point x="649" y="192"/>
    </contour>
  </outline>
</glyph>
<glyph name="c" format="1">
  <advance width="753"/>
  <unicode hex="0063"/>
  <outline>
    <contour>
      <point x="710" y="20" type="curve"/>
      <point x="754" y="240" type="line"/>
      <point x="686" y="208"/>
      <point x="650" y="192"/>
      <point x="554" y="192" type="curve" smooth="yes"/>
      <point x="426" y="192"/>
      <point x="374" y="256"/>
      <point x="410" y="416" type="curve" smooth="yes"/>
      <point x="450" y="608" type="line" smooth="yes"/>
      <point x="486" y="768"/>
      <point x="562" y="832"/>
      <point x="690" y="832" type="curve" smooth="yes"/>
      <point x="786" y="832"/>
      <point x="814" y="816"/>
      <point x="870" y="784" type="curve"/>
      <point x="918" y="1004" type="line"/>
      <point x="890" y="1024"/>
      <point x="802" y="1056"/>
      <point x="722" y="1056" type="curve" smooth="yes"/>
      <point x="450" y="1056"/>
      <point x="270" y="956"/>
      <point x="202" y="640" type="curve" smooth="yes"/>
      <point x="146" y="384" type="line" smooth="yes"/>
      <point x="94" y="128"/>
      <point x="218" y="-32"/>
      <point x="506" y="-32" type="curve" smooth="yes"/>
      <point x="586" y="-32"/>
      <point x="670" y="0"/>
    </contour>
  </outline>
</glyph>
<glyph name="d" format="1">
  <advance width="1010"/>
  <unicode hex="0064"/>
  <outline>
    <contour>
      <point x="531" y="192" type="curve" smooth="yes"/>
      <point x="443" y="192"/>
      <point x="387" y="264"/>
      <point x="403" y="352" type="curve" smooth="yes"/>
      <point x="471" y="672" type="line" smooth="yes"/>
      <point x="491" y="760"/>
      <point x="579" y="832"/>
      <point x="667" y="832" type="curve" smooth="yes"/>
      <point x="755" y="832"/>
      <point x="811" y="760"/>
      <point x="791" y="672" type="curve"/>
      <point x="794" y="673" type="line"/>
      <point x="726" y="351" type="line"/>
      <point x="723" y="352" type="line"/>
      <point x="707" y="264"/>
      <point x="619" y="192"/>
    </contour>
    <contour>
      <point x="747" y="0" type="line"/>
      <point x="914" y="0" type="line"/>
      <point x="1238" y="1536" type="line"/>
      <point x="963" y="1472" type="line"/>
      <point x="855" y="960" type="line"/>
      <point x="812" y="1019"/>
      <point x="743" y="1056"/>
      <point x="651" y="1056" type="curve" smooth="yes"/>
      <point x="459" y="1056"/>
      <point x="254" y="896"/>
      <point x="214" y="704" type="curve" smooth="yes"/>
      <point x="134" y="320" type="line" smooth="yes"/>
      <point x="94" y="128"/>
      <point x="227" y="-32"/>
      <point x="419" y="-32" type="curve" smooth="yes"/>
      <point x="535" y="-32"/>
      <point x="641" y="26"/>
      <point x="715" y="115" type="curve"/>
    </contour>
  </outline>
</glyph>
<glyph name="e" format="1">
  <advance width="946"/>
  <unicode hex="0065"/>
  <outline>
    <contour>
      <point x="820" y="32" type="curve"/>
      <point x="864" y="240" type="line"/>
      <point x="800" y="224"/>
      <point x="692" y="192"/>
      <point x="564" y="192" type="curve" smooth="yes"/>
      <point x="468" y="192"/>
      <point x="380" y="240"/>
      <point x="404" y="352" type="curve" smooth="yes"/>
      <point x="419" y="416" type="line"/>
      <point x="970" y="416" type="line"/>
      <point x="1018" y="640" type="line" smooth="yes"/>
      <point x="1070" y="896"/>
      <point x="939" y="1056"/>
      <point x="651" y="1056" type="curve" smooth="yes"/>
      <point x="427" y="1056"/>
      <point x="254" y="896"/>
      <point x="202" y="640" type="curve" smooth="yes"/>
      <point x="144" y="384" type="line" smooth="yes"/>
      <point x="84" y="96"/>
      <point x="324" y="-32"/>
      <point x="548" y="-32" type="curve" smooth="yes"/>
      <point x="644" y="-32"/>
      <point x="752" y="0"/>
    </contour>
    <contour>
      <point x="471" y="672" type="line" smooth="yes"/>
      <point x="491" y="760"/>
      <point x="579" y="832"/>
      <point x="667" y="832" type="curve" smooth="yes"/>
      <point x="755" y="832"/>
      <point x="811" y="760"/>
      <point x="791" y="672" type="curve" smooth="yes"/>
      <point x="779" y="608" type="line"/>
      <point x="459" y="608" type="line"/>
    </contour>
  </outline>
</glyph>
<glyph name="g" format="1">
  <advance width="998"/>
  <unicode hex="0067"/>
  <outline>
    <contour>
      <point x="526" y="192" type="curve" smooth="yes"/>
      <point x="430" y="192"/>
      <point x="382" y="288"/>
      <point x="414" y="448" type="curve" smooth="yes"/>
      <point x="446" y="576" type="line" smooth="yes"/>
      <point x="478" y="736"/>
      <point x="622" y="832"/>
      <point x="782" y="832" type="curve" smooth="yes"/>
      <point x="818" y="832" type="line"/>
      <point x="706" y="325" type="line"/>
      <point x="660" y="216"/>
      <point x="581" y="192"/>
    </contour>
    <contour>
      <point x="356" y="-416" type="curve" smooth="yes"/>
      <point x="612" y="-416"/>
      <point x="836" y="-288"/>
      <point x="896" y="0" type="curve" smooth="yes"/>
      <point x="1120" y="1024" type="line"/>
      <point x="1118" y="1024" type="line"/>
      <point x="1030" y="1048"/>
      <point x="926" y="1056"/>
      <point x="798" y="1056" type="curve" smooth="yes"/>
      <point x="510" y="1056"/>
      <point x="254" y="896"/>
      <point x="182" y="544" type="curve" smooth="yes"/>
      <point x="166" y="480" type="line" smooth="yes"/>
      <point x="94" y="128"/>
      <point x="222" y="-32"/>
      <point x="446" y="-32" type="curve" smooth="yes"/>
      <point x="517" y="-32"/>
      <point x="584" y="-6"/>
      <point x="642" y="33" type="curve"/>
      <point x="628" y="-32" type="line" smooth="yes"/>
      <point x="604" y="-144"/>
      <point x="468" y="-192"/>
      <point x="372" y="-192" type="curve" smooth="yes"/>
      <point x="244" y="-192"/>
      <point x="152" y="-160"/>
      <point x="92" y="-144" type="curve"/>
      <point x="48" y="-352" type="line"/>
      <point x="108" y="-384"/>
      <point x="228" y="-416"/>
    </contour>
  </outline>
</glyph>
<glyph name="h" format="1">
  <advance width="1027"/>
  <unicode hex="0068"/>
  <outline>
    <contour>
      <point x="505" y="672" type="line"/>
      <point x="525" y="760"/>
      <point x="609" y="832"/>
      <point x="697" y="832" type="curve" smooth="yes"/>
      <point x="785" y="832"/>
      <point x="845" y="760"/>
      <point x="825" y="672" type="curve" smooth="yes"/>
      <point x="681" y="0" type="line"/>
      <point x="945" y="0" type="line"/>
      <point x="1097" y="704" type="line" smooth="yes"/>
      <point x="1137" y="896"/>
      <point x="1001" y="1056"/>
      <point x="809" y="1056" type="curve" smooth="yes"/>
      <point x="718" y="1056"/>
      <point x="634" y="1020"/>
      <point x="566" y="961" type="curve"/>
      <point x="689" y="1536" type="line"/>
      <point x="409" y="1472" type="line"/>
      <point x="97" y="0" type="line"/>
      <point x="361" y="0" type="line"/>
      <point x="504" y="672" type="line"/>
    </contour>
  </outline>
</glyph>
<glyph name="i" format="1">
  <advance width="459"/>
  <unicode hex="0069"/>
  <outline>
    <contour>
      <point x="622" y="1216" type="line"/>
      <point x="674" y="1472" type="line"/>
      <point x="410" y="1472" type="line"/>
      <point x="358" y="1216" type="line"/>
    </contour>
    <contour>
      <point x="362" y="0" type="line"/>
      <point x="578" y="1024" type="line"/>
      <point x="314" y="1024" type="line"/>
      <point x="98" y="0" type="line"/>
    </contour>
  </outline>
</glyph>
<glyph name="j" format="1">
  <advance width="466"/>
  <unicode hex="006A"/>
  <outline>
    <contour>
      <point x="626" y="1216" type="line"/>
      <point x="682" y="1472" type="line"/>
      <point x="410" y="1472" type="line"/>
      <point x="354" y="1216" type="line"/>
    </contour>
    <contour>
      <point x="286" y="-384" type="line"/>
      <point x="586" y="1024" type="line"/>
      <point x="314" y="1024" type="line"/>
      <point x="2" y="-448" type="line"/>
    </contour>
  </outline>
</glyph>
<glyph name="k" format="1">
  <advance width="979"/>
  <unicode hex="006B"/>
  <outline>
    <contour>
      <point x="665" y="0" type="line"/>
      <point x="945" y="0" type="line"/>
      <point x="717" y="512" type="line"/>
      <point x="1165" y="1024" type="line"/>
      <point x="917" y="1024" type="line"/>
      <point x="471" y="514" type="line"/>
      <point x="689" y="1536" type="line"/>
      <point x="409" y="1472" type="line"/>
      <point x="97" y="0" type="line"/>
      <point x="361" y="0" type="line"/>
      <point x="459" y="461" type="line"/>
    </contour>
  </outline>
</glyph>
<glyph name="l" format="1">
  <advance width="458"/>
  <unicode hex="006C"/>
  <outline>
    <contour>
      <point x="361" y="0" type="line"/>
      <point x="689" y="1536" type="line"/>
      <point x="409" y="1472" type="line"/>
      <point x="97" y="0" type="line"/>
    </contour>
  </outline>
</glyph>
<glyph name="m" format="1">
  <advance width="1610"/>
  <unicode hex="006D"/>
  <outline>
    <contour>
      <point x="698" y="832" type="curve" smooth="yes"/>
      <point x="786" y="832"/>
      <point x="842" y="760"/>
      <point x="826" y="672" type="curve" smooth="yes"/>
      <point x="682" y="0" type="line"/>
      <point x="938" y="0" type="line"/>
      <point x="1087" y="673" type="line"/>
      <point x="1090" y="672" type="line"/>
      <point x="1106" y="760"/>
      <point x="1194" y="832"/>
      <point x="1282" y="832" type="curve" smooth="yes"/>
      <point x="1370" y="832"/>
      <point x="1426" y="760"/>
      <point x="1410" y="672" type="curve" smooth="yes"/>
      <point x="1266" y="0" type="line"/>
      <point x="1530" y="0" type="line"/>
      <point x="1678" y="704" type="line" smooth="yes"/>
      <point x="1722" y="896"/>
      <point x="1586" y="1056"/>
      <point x="1394" y="1056" type="curve" smooth="yes"/>
      <point x="1267" y="1056"/>
      <point x="1155" y="987"/>
      <point x="1080" y="885" type="curve"/>
      <point x="1038" y="987"/>
      <point x="936" y="1056"/>
      <point x="810" y="1056" type="curve" smooth="yes"/>
      <point x="695" y="1056"/>
      <point x="591" y="998"/>
      <point x="517" y="911" type="curve"/>
      <point x="482" y="1024" type="line"/>
      <point x="314" y="1024" type="line"/>
      <point x="98" y="0" type="line"/>
      <point x="362" y="0" type="line"/>
      <point x="508" y="682" type="line" smooth="yes"/>
      <point x="528" y="765"/>
      <point x="613" y="832"/>
    </contour>
  </outline>
</glyph>
<glyph name="n" format="1">
  <advance width="1026"/>
  <unicode hex="006E"/>
  <outline>
    <contour>
      <point x="698" y="832" type="curve" smooth="yes"/>
      <point x="786" y="832"/>
      <point x="842" y="760"/>
      <point x="826" y="672" type="curve" smooth="yes"/>
      <point x="682" y="0" type="line"/>
      <point x="946" y="0" type="line"/>
      <point x="1094" y="704" type="line" smooth="yes"/>
      <point x="1138" y="896"/>
      <point x="1002" y="1056"/>
      <point x="810" y="1056" type="curve" smooth="yes"/>
      <point x="695" y="1056"/>
      <point x="591" y="998"/>
      <point x="517" y="911" type="curve"/>
      <point x="482" y="1024" type="line"/>
      <point x="314" y="1024" type="line"/>
      <point x="98" y="0" type="line"/>
      <point x="362" y="0" type="line"/>
      <point x="508" y="682" type="line" smooth="yes"/>
      <point x="528" y="765"/>
      <point x="613" y="832"/>
    </contour>
  </outline>
</glyph>
<glyph name="o" format="1">
  <advance width="978"/>
  <unicode hex="006F"/>
  <outline>
    <contour>
      <point x="514" y="-32" type="curve" smooth="yes"/>
      <point x="770" y="-32"/>
      <point x="942" y="128"/>
      <point x="994" y="384" type="curve" smooth="yes"/>
      <point x="1050" y="640" type="line" smooth="yes"/>
      <point x="1102" y="896"/>
      <point x="938" y="1056"/>
      <point x="682" y="1056" type="curve" smooth="yes"/>
      <point x="426" y="1056"/>
      <point x="254" y="896"/>
      <point x="202" y="640" type="curve" smooth="yes"/>
      <point x="146" y="384" type="line" smooth="yes"/>
      <point x="94" y="128"/>
      <point x="258" y="-32"/>
    </contour>
    <contour>
      <point x="530" y="192" type="curve" smooth="yes"/>
      <point x="442" y="192"/>
      <point x="386" y="264"/>
      <point x="402" y="352" type="curve" smooth="yes"/>
      <point x="474" y="672" type="line" smooth="yes"/>
      <point x="490" y="760"/>
      <point x="578" y="832"/>
      <point x="666" y="832" type="curve" smooth="yes"/>
      <point x="754" y="832"/>
      <point x="810" y="760"/>
      <point x="794" y="672" type="curve" smooth="yes"/>
      <point x="722" y="352" type="line" smooth="yes"/>
      <point x="706" y="264"/>
      <point x="618" y="192"/>
    </contour>
  </outline>
</glyph>
<glyph name="p" format="1">
  <advance width="1010"/>
  <unicode hex="0070"/>
  <outline>
    <contour>
      <point x="563" y="192" type="curve" smooth="yes"/>
      <point x="475" y="192"/>
      <point x="419" y="264"/>
      <point x="439" y="352" type="curve"/>
      <point x="435" y="351" type="line"/>
      <point x="504" y="673" type="line"/>
      <point x="507" y="672" type="line"/>
      <point x="523" y="760"/>
      <point x="611" y="832"/>
      <point x="699" y="832" type="curve" smooth="yes"/>
      <point x="787" y="832"/>
      <point x="843" y="760"/>
      <point x="827" y="672" type="curve" smooth="yes"/>
      <point x="759" y="352" type="line" smooth="yes"/>
      <point x="739" y="264"/>
      <point x="651" y="192"/>
    </contour>
    <contour>
      <point x="279" y="-384" type="line"/>
      <point x="381" y="97" type="line"/>
      <point x="438" y="19"/>
      <point x="534" y="-32"/>
      <point x="642" y="-32" type="curve" smooth="yes"/>
      <point x="834" y="-32"/>
      <point x="974" y="128"/>
      <point x="1014" y="320" type="curve" smooth="yes"/>
      <point x="1094" y="704" type="line" smooth="yes"/>
      <point x="1134" y="896"/>
      <point x="970" y="1056"/>
      <point x="778" y="1056" type="curve" smooth="yes"/>
      <point x="667" y="1056"/>
      <point x="577" y="1003"/>
      <point x="512" y="921" type="curve"/>
      <point x="483" y="1024" type="line"/>
      <point x="314" y="1024" type="line"/>
      <point x="2" y="-448" type="line"/>
    </contour>
  </outline>
</glyph>
<glyph name="q" format="1">
  <advance width="1012"/>
  <unicode hex="0071"/>
  <outline>
    <contour>
      <point x="548" y="-448" type="line"/>
      <point x="830" y="-384" type="line"/>
      <point x="1134" y="1024" type="line"/>
      <point x="1046" y="1048"/>
      <point x="932" y="1056"/>
      <point x="804" y="1056" type="curve" smooth="yes"/>
      <point x="516" y="1056"/>
      <point x="254" y="896"/>
      <point x="182" y="544" type="curve" smooth="yes"/>
      <point x="166" y="480" type="line" smooth="yes"/>
      <point x="94" y="128"/>
      <point x="228" y="-32"/>
      <point x="452" y="-32" type="curve" smooth="yes"/>
      <point x="525" y="-32"/>
      <point x="595" y="-4"/>
      <point x="655" y="38" type="curve"/>
    </contour>
    <contour>
      <point x="532" y="192" type="curve" smooth="yes"/>
      <point x="436" y="192"/>
      <point x="388" y="288"/>
      <point x="420" y="448" type="curve" smooth="yes"/>
      <point x="452" y="576" type="line" smooth="yes"/>
      <point x="484" y="736"/>
      <point x="628" y="832"/>
      <point x="788" y="832" type="curve" smooth="yes"/>
      <point x="830" y="832" type="line"/>
      <point x="728" y="368" type="line"/>
      <point x="686" y="222"/>
      <point x="594" y="192"/>
    </contour>
  </outline>
</glyph>
<glyph name="r" format="1">
  <advance width="715"/>
  <unicode hex="0072"/>
  <outline>
    <contour>
      <point x="698" y="832" type="curve" smooth="yes"/>
      <point x="762" y="832"/>
      <point x="806" y="816"/>
      <point x="850" y="800" type="curve"/>
      <point x="898" y="1008" type="line"/>
      <point x="886" y="1040"/>
      <point x="842" y="1056"/>
      <point x="810" y="1056" type="curve" smooth="yes"/>
      <point x="695" y="1056"/>
      <point x="591" y="998"/>
      <point x="517" y="911" type="curve"/>
      <point x="482" y="1024" type="line"/>
      <point x="314" y="1024" type="line"/>
      <point x="98" y="0" type="line"/>
      <point x="362" y="0" type="line"/>
      <point x="508" y="682" type="line" smooth="yes"/>
      <point x="528" y="765"/>
      <point x="613" y="832"/>
    </contour>
  </outline>
</glyph>
<glyph name="s" format="1">
  <advance width="694"/>
  <unicode hex="0073"/>
  <outline>
    <contour>
      <point x="639" y="528" type="curve" smooth="yes"/>
      <point x="551" y="640" type="line" smooth="yes"/>
      <point x="511" y="688"/>
      <point x="475" y="736"/>
      <point x="483" y="768" type="curve"/>
      <point x="487" y="800"/>
      <point x="511" y="832"/>
      <point x="575" y="832" type="curve" smooth="yes"/>
      <point x="639" y="832"/>
      <point x="719" y="800"/>
      <point x="755" y="784" type="curve"/>
      <point x="803" y="992" type="line"/>
      <point x="775" y="1024"/>
      <point x="671" y="1056"/>
      <point x="559" y="1056" type="curve" smooth="yes"/>
      <point x="367" y="1056"/>
      <point x="267" y="960"/>
      <point x="227" y="768" type="curve" smooth="yes"/>
      <point x="207" y="672"/>
      <point x="251" y="592"/>
      <point x="315" y="512" type="curve" smooth="yes"/>
      <point x="403" y="400" type="line" smooth="yes"/>
      <point x="427" y="368"/>
      <point x="443" y="320"/>
      <point x="431" y="272" type="curve"/>
      <point x="423" y="224"/>
      <point x="391" y="192"/>
      <point x="311" y="192" type="curve" smooth="yes"/>
      <point x="247" y="192"/>
      <point x="203" y="208"/>
      <point x="147" y="240" type="curve"/>
      <point x="99" y="32" type="line"/>
      <point x="155" y="-8"/>
      <point x="231" y="-32"/>
      <point x="327" y="-32" type="curve" smooth="yes"/>
      <point x="535" y="-32"/>
      <point x="647" y="80"/>
      <point x="687" y="272" type="curve" smooth="yes"/>
      <point x="703" y="336"/>
      <point x="703" y="448"/>
    </contour>
  </outline>
</glyph>
<glyph name="t" format="1">
  <advance width="652"/>
  <unicode hex="0074"/>
  <outline>
    <contour>
      <point x="426" y="0" type="line"/>
      <point x="598" y="800" type="line"/>
      <point x="790" y="800" type="line"/>
      <point x="834" y="1024" type="line"/>
      <point x="642" y="1024" type="line"/>
      <point x="698" y="1280" type="line"/>
      <point x="422" y="1216" type="line"/>
      <point x="378" y="1024" type="line"/>
      <point x="250" y="1024" type="line"/>
      <point x="206" y="800" type="line"/>
      <point x="334" y="800" type="line"/>
      <point x="162" y="0" type="line"/>
    </contour>
  </outline>
</glyph>
<glyph name="u" format="1">
  <advance width="1026"/>
  <unicode hex="0075"/>
  <outline>
    <contour>
      <point x="762" y="0" type="line"/>
      <point x="930" y="0" type="line"/>
      <point x="1146" y="1024" type="line"/>
      <point x="882" y="1024" type="line"/>
      <point x="736" y="342" type="line" smooth="yes"/>
      <point x="715" y="259"/>
      <point x="630" y="192"/>
      <point x="546" y="192" type="curve" smooth="yes"/>
      <point x="458" y="192"/>
      <point x="402" y="264"/>
      <point x="418" y="352" type="curve" smooth="yes"/>
      <point x="562" y="1024" type="line"/>
      <point x="298" y="1024" type="line"/>
      <point x="150" y="320" type="line" smooth="yes"/>
      <point x="106" y="128"/>
      <point x="242" y="-32"/>
      <point x="434" y="-32" type="curve" smooth="yes"/>
      <point x="549" y="-32"/>
      <point x="652" y="26"/>
      <point x="726" y="113" type="curve"/>
    </contour>
  </outline>
</glyph>
<glyph name="v" format="1">
  <advance width="852"/>
  <unicode hex="0076"/>
  <outline>
    <contour>
      <point x="250" y="0" type="line"/>
      <point x="598" y="0" type="line"/>
      <point x="1038" y="1024" type="line"/>
      <point x="774" y="1024" type="line"/>
      <point x="514" y="316" type="line"/>
      <point x="514" y="1024" type="line"/>
      <point x="250" y="1024" type="line"/>
    </contour>
  </outline>
</glyph>
<glyph name="w" format="1">
  <advance width="1284"/>
  <unicode hex="0077"/>
  <outline>
    <contour>
      <point x="250" y="0" type="line"/>
      <point x="542" y="0" type="line"/>
      <point x="766" y="521" type="line"/>
      <point x="766" y="0" type="line"/>
      <point x="1030" y="0" type="line"/>
      <point x="1042" y="32"/>
      <point x="1470" y="1024"/>
      <point x="1470" y="1024" type="curve"/>
      <point x="1214" y="1024" type="line"/>
      <point x="951" y="378" type="line"/>
      <point x="982" y="1024" type="line"/>
      <point x="766" y="1024" type="line"/>
      <point x="510" y="355" type="line"/>
      <point x="510" y="1024" type="line"/>
      <point x="250" y="1024" type="line"/>
    </contour>
  </outline>
</glyph>
<glyph name="x" format="1">
  <advance width="870"/>
  <unicode hex="0078"/>
  <outline>
    <contour>
      <point x="576" y="0" type="line"/>
      <point x="832" y="0" type="line"/>
      <point x="688" y="512" type="line"/>
      <point x="1056" y="1024" type="line"/>
      <point x="800" y="1024" type="line"/>
      <point x="751" y="957"/>
      <point x="668" y="841"/>
      <point x="593" y="736" type="curve"/>
      <point x="512" y="1024" type="line"/>
      <point x="256" y="1024" type="line"/>
      <point x="400" y="512" type="line"/>
      <point x="32" y="0" type="line"/>
      <point x="288" y="0" type="line"/>
      <point x="495" y="288" type="line"/>
    </contour>
  </outline>
</glyph>
<glyph name="y" format="1">
  <advance width="848"/>
  <unicode hex="0079"/>
  <outline>
    <contour>
      <point x="150" y="-448" type="line"/>
      <point x="426" y="-384" type="line"/>
      <point x="1034" y="1024" type="line"/>
      <point x="770" y="1024" type="line"/>
      <point x="514" y="371" type="line"/>
      <point x="514" y="1024" type="line"/>
      <point x="250" y="1024" type="line"/>
      <point x="250" y="0" type="line"/>
      <point x="332" y="0" type="line"/>
    </contour>
  </outline>
</glyph>
<glyph name="z" format="1">
  <advance width="834"/>
  <unicode hex="007A"/>
  <outline>
    <contour>
      <point x="770" y="0" type="line"/>
      <point x="818" y="224" type="line"/>
      <point x="442" y="224" type="line"/>
      <point x="958" y="896" type="line"/>
      <point x="986" y="1024" type="line"/>
      <point x="282" y="1024" type="line"/>
      <point x="234" y="800" type="line"/>
      <point x="642" y="800" type="line"/>
      <point x="94" y="128" type="line"/>
      <point x="66" y="0" type="line"/>
    </contour>
  </outline>
</glyph>
<glyph name="copyright" format="1">
  <advance width="1392"/>
  <unicode hex="00A9"/>
  <outline>
    <contour>
      <point x="1429" y="624" type="curve" smooth="yes"/>
      <point x="1477" y="852" type="line" smooth="yes"/>
      <point x="1557" y="1220"/>
      <point x="1381" y="1496"/>
      <point x="1013" y="1496" type="curve" smooth="yes"/>
      <point x="645" y="1496"/>
      <point x="357" y="1220"/>
      <point x="277" y="852" type="curve" smooth="yes"/>
      <point x="229" y="624" type="line" smooth="yes"/>
      <point x="149" y="256"/>
      <point x="325" y="-16"/>
      <point x="693" y="-16" type="curve" smooth="yes"/>
      <point x="1061" y="-16"/>
      <point x="1349" y="256"/>
    </contour>
    <contour>
      <point x="1281" y="900" type="curve" smooth="yes"/>
      <point x="1213" y="584" type="line" smooth="yes"/>
      <point x="1161" y="352"/>
      <point x="945" y="188"/>
      <point x="737" y="188" type="curve" smooth="yes"/>
      <point x="529" y="188"/>
      <point x="377" y="352"/>
      <point x="429" y="584" type="curve" smooth="yes"/>
      <point x="497" y="900" type="line" smooth="yes"/>
      <point x="545" y="1128"/>
      <point x="761" y="1288"/>
      <point x="969" y="1288" type="curve" smooth="yes"/>
      <point x="1177" y="1288"/>
      <point x="1329" y="1128"/>
    </contour>
    <contour>
      <point x="973" y="408" type="curve"/>
      <point x="1009" y="564" type="line"/>
      <point x="953" y="540"/>
      <point x="929" y="528"/>
      <point x="861" y="528" type="curve" smooth="yes"/>
      <point x="769" y="528"/>
      <point x="729" y="572"/>
      <point x="753" y="688" type="curve" smooth="yes"/>
      <point x="785" y="828" type="line" smooth="yes"/>
      <point x="809" y="944"/>
      <point x="865" y="992"/>
      <point x="957" y="992" type="curve" smooth="yes"/>
      <point x="1025" y="992"/>
      <point x="1049" y="976"/>
      <point x="1089" y="956" type="curve"/>
      <point x="1125" y="1116" type="line"/>
      <point x="1105" y="1128"/>
      <point x="1053" y="1148"/>
      <point x="969" y="1148" type="curve" smooth="yes"/>
      <point x="789" y="1148"/>
      <point x="649" y="1032"/>
      <point x="609" y="852" type="curve" smooth="yes"/>
      <point x="569" y="668" type="line" smooth="yes"/>
      <point x="529" y="480"/>
      <point x="621" y="368"/>
      <point x="801" y="368" type="curve" smooth="yes"/>
      <point x="885" y="368"/>
      <point x="945" y="392"/>
    </contour>
  </outline>
</glyph>
<glyph name="periodcentered" format="1">
  <advance width="500"/>
  <unicode hex="00B7"/>
  <outline>
    <contour>
      <point x="344" y="448" type="curve" smooth="yes"/>
      <point x="488" y="448"/>
      <point x="628" y="568"/>
      <point x="656" y="704" type="curve" smooth="yes"/>
      <point x="688" y="848"/>
      <point x="600" y="960"/>
      <point x="456" y="960" type="curve" smooth="yes"/>
      <point x="320" y="960"/>
      <point x="176" y="848"/>
      <point x="144" y="704" type="curve" smooth="yes"/>
      <point x="116" y="568"/>
      <point x="208" y="448"/>
    </contour>
  </outline>
</glyph>
<glyph name="endash" format="1">
  <advance width="1027"/>
  <unicode hex="2013"/>
  <outline>
    <contour>
      <point x="1091" y="768" type="line"/>
      <point x="259" y="768" type="line"/>
      <point x="211" y="528" type="line"/>
      <point x="1043" y="528" type="line"/>
    </contour>
  </outline>
</glyph>
<glyph name="quoteleft" format="1">
  <advance width="451"/>
  <unicode hex="2018"/>
  <outline>
    <contour>
      <point x="368" y="1264" type="line"/>
      <point x="300" y="960" type="line"/>
      <point x="556" y="960" type="line"/>
      <point x="624" y="1264" type="line"/>
      <point x="528" y="1264" type="line"/>
      <point x="572" y="1472" type="line"/>
      <point x="492" y="1472" type="line"/>
    </contour>
  </outline>
</glyph>
<glyph name="quoteright" format="1">
  <advance width="465"/>
  <unicode hex="2019"/>
  <outline>
    <contour>
      <point x="461" y="1184" type="line"/>
      <point x="417" y="976" type="line"/>
      <point x="497" y="976" type="line"/>
      <point x="621" y="1184" type="line"/>
      <point x="681" y="1472" type="line"/>
      <point x="409" y="1472" type="line"/>
      <point x="349" y="1184" type="line"/>
    </contour>
  </outline>
</glyph>
<glyph name="quotedblleft" format="1">
  <advance width="865"/>
  <unicode hex="201C"/>
  <outline>
    <contour>
      <point x="525" y="1264" type="line"/>
      <point x="569" y="1472" type="line"/>
      <point x="489" y="1472" type="line"/>
      <point x="365" y="1264" type="line"/>
      <point x="305" y="976" type="line"/>
      <point x="577" y="976" type="line"/>
      <point x="637" y="1264" type="line"/>
    </contour>
    <contour>
      <point x="925" y="1264" type="line"/>
      <point x="969" y="1472" type="line"/>
      <point x="889" y="1472" type="line"/>
      <point x="765" y="1264" type="line"/>
      <point x="705" y="976" type="line"/>
      <point x="977" y="976" type="line"/>
      <point x="1037" y="1264" type="line"/>
    </contour>
  </outline>
</glyph>
<glyph name="quotedblright" format="1">
  <advance width="865"/>
  <unicode hex="201D"/>
  <outline>
    <contour>
      <point x="461" y="1184" type="line"/>
      <point x="417" y="976" type="line"/>
      <point x="497" y="976" type="line"/>
      <point x="621" y="1184" type="line"/>
      <point x="681" y="1472" type="line"/>
      <point x="409" y="1472" type="line"/>
      <point x="349" y="1184" type="line"/>
    </contour>
    <contour>
      <point x="861" y="1184" type="line"/>
      <point x="817" y="976" type="line"/>
      <point x="897" y="976" type="line"/>
      <point x="1021" y="1184" type="line"/>
      <point x="1081" y="1472" type="line"/>
      <point x="809" y="1472" type="line"/>
      <point x="749" y="1184" type="line"/>
    </contour>
  </outline>
</glyph>
<glyph name="f_f" format="1">
  <advance width="1289"/>
  <outline>
    <contour>
      <point x="982" y="-384" type="line"/>
      <point x="1234" y="800" type="line"/>
      <point x="1426" y="800" type="line"/>
      <point x="1474" y="1024" type="line"/>
      <point x="1282" y="1024" type="line"/>
      <point x="1322" y="1216" type="line" smooth="yes"/>
      <point x="1330" y="1248"/>
      <point x="1358" y="1280"/>
      <point x="1402" y="1280" type="curve" smooth="yes"/>
      <point x="1458" y="1280"/>
      <point x="1494" y="1264"/>
      <point x="1522" y="1248" type="curve"/>
      <point x="1566" y="1456" type="line"/>
      <point x="1538" y="1472"/>
      <point x="1450" y="1504"/>
      <point x="1386" y="1504" type="curve" smooth="yes"/>
      <point x="1226" y="1504"/>
      <point x="1110" y="1440"/>
      <point x="1070" y="1248" type="curve" smooth="yes"/>
      <point x="1022" y="1024" type="line"/>
      <point x="638" y="1024" type="line"/>
      <point x="678" y="1216" type="line" smooth="yes"/>
      <point x="686" y="1248"/>
      <point x="714" y="1280"/>
      <point x="758" y="1280" type="curve" smooth="yes"/>
      <point x="814" y="1280"/>
      <point x="850" y="1264"/>
      <point x="878" y="1248" type="curve"/>
      <point x="922" y="1456" type="line"/>
      <point x="894" y="1472"/>
      <point x="806" y="1504"/>
      <point x="742" y="1504" type="curve" smooth="yes"/>
      <point x="582" y="1504"/>
      <point x="466" y="1440"/>
      <point x="426" y="1248" type="curve" smooth="yes"/>
      <point x="378" y="1024" type="line"/>
      <point x="250" y="1024" type="line"/>
      <point x="202" y="800" type="line"/>
      <point x="330" y="800" type="line"/>
      <point x="66" y="-448" type="line"/>
      <point x="338" y="-384" type="line"/>
      <point x="590" y="800" type="line"/>
      <point x="974" y="800" type="line"/>
      <point x="710" y="-448" type="line"/>
    </contour>
  </outline>
</glyph>
